<svg version="1.1" id="Layer_1" xmlns="http://www.w3.org/2000/svg" xmlns:xlink="http://www.w3.org/1999/xlink" x="0px" y="0px"
	 width="100%" viewBox="0 0 300 300" enable-background="new 0 0 300 300" xml:space="preserve">
<path fill="#010101" opacity="0" stroke="none" 
	d="
M173.000000,0.999997 
	C215.593643,1.000000 258.187286,1.000000 301.000000,1.000000 
	C301.000000,43.353977 301.000000,85.708328 300.664551,128.878387 
	C299.894012,128.886673 299.194153,128.120148 299.062286,127.265945 
	C294.750000,99.327538 283.274139,74.643585 264.808075,53.348694 
	C240.742447,25.596495 210.562454,8.564975 174.130493,2.860446 
	C173.667908,2.788014 173.373123,1.643891 173.000000,0.999997 
z"/>
<path fill="#010101" opacity="0" stroke="none" 
	d="
M0.999999,129.000000 
	C1.000000,86.406357 1.000000,43.812717 1.000000,1.000000 
	C43.353977,1.000000 85.708328,1.000000 128.900635,1.329676 
	C128.956894,2.098391 128.217102,2.809195 127.387451,2.937117 
	C99.461662,7.242902 74.759537,18.674494 53.450325,37.105522 
	C25.677662,61.126987 8.569013,91.257469 2.863722,127.696648 
	C2.782459,128.215652 1.644681,128.569214 0.999999,129.000000 
z"/>
<path fill="#010101" opacity="0" stroke="none" 
	d="
M129.000000,301.000000 
	C86.406357,301.000000 43.812717,301.000000 1.000000,301.000000 
	C1.000000,258.646027 1.000000,216.291672 1.338913,173.132141 
	C2.444508,175.088364 3.386848,177.814407 3.951002,180.616577 
	C10.384804,212.573517 25.681530,239.584549 49.641922,261.565613 
	C71.833466,281.923950 97.845665,294.619934 127.740578,299.138092 
	C128.242706,299.213959 128.583771,300.355652 129.000000,301.000000 
z"/>
<path fill="#010101" opacity="0" stroke="none" 
	d="
M301.000000,173.000000 
	C301.000000,215.593643 301.000000,258.187286 301.000000,301.000000 
	C258.646027,301.000000 216.291672,301.000000 173.119507,300.665314 
	C175.051773,299.561462 177.765869,298.614380 180.557388,298.050323 
	C212.484268,291.599121 239.518082,276.364868 261.500641,252.422668 
	C281.877106,230.229782 294.636108,204.229736 299.138245,174.304352 
	C299.215942,173.787903 300.355804,173.431244 301.000000,173.000000 
z"/>
<path fill="#F6F6F6" opacity="1.000000" stroke="none" 
	d="
M301.000000,172.531342 
	C300.355804,173.431244 299.215942,173.787903 299.138245,174.304352 
	C294.636108,204.229736 281.877106,230.229782 261.500641,252.422668 
	C239.518082,276.364868 212.484268,291.599121 180.557388,298.050323 
	C177.765869,298.614380 175.051773,299.561462 172.650848,300.665314 
	C158.645767,301.000000 144.291550,301.000000 129.468658,301.000000 
	C128.583771,300.355652 128.242706,299.213959 127.740578,299.138092 
	C97.845665,294.619934 71.833466,281.923950 49.641922,261.565613 
	C25.681530,239.584549 10.384804,212.573517 3.951002,180.616577 
	C3.386848,177.814407 2.444508,175.088364 1.338913,172.663483 
	C1.000000,158.645767 1.000000,144.291550 0.999999,129.468658 
	C1.644681,128.569214 2.782459,128.215652 2.863722,127.696648 
	C8.569013,91.257469 25.677662,61.126987 53.450325,37.105522 
	C74.759537,18.674494 99.461662,7.242902 127.387451,2.937117 
	C128.217102,2.809195 128.956894,2.098391 129.369293,1.329676 
	C143.354233,1.000000 157.708450,1.000000 172.531342,0.999997 
	C173.373123,1.643891 173.667908,2.788014 174.130493,2.860446 
	C210.562454,8.564975 240.742447,25.596495 264.808075,53.348694 
	C283.274139,74.643585 294.750000,99.327538 299.062286,127.265945 
	C299.194153,128.120148 299.894012,128.886673 300.664551,129.347046 
	C301.000000,143.354233 301.000000,157.708450 301.000000,172.531342 
M16.226828,94.843246 
	C5.591479,121.080254 2.098170,148.249100 7.184721,176.096481 
	C13.422594,210.247025 29.464693,239.173355 56.152462,261.695862 
	C91.089561,291.180176 131.494293,302.275940 176.383942,294.655609 
	C210.590515,288.848785 239.487930,272.411804 261.865906,245.607162 
	C293.687531,207.490753 304.258209,163.762054 292.482574,115.684853 
	C273.938995,39.975613 198.683151,-7.453983 123.127884,8.030418 
	C72.915512,18.321011 37.668846,47.585911 16.226828,94.843246 
z"/>
<path fill="#010101" opacity="0" stroke="none" 
	d="
M16.439110,94.519028 
	C37.668846,47.585911 72.915512,18.321011 123.127884,8.030418 
	C198.683151,-7.453983 273.938995,39.975613 292.482574,115.684853 
	C304.258209,163.762054 293.687531,207.490753 261.865906,245.607162 
	C239.487930,272.411804 210.590515,288.848785 176.383942,294.655609 
	C131.494293,302.275940 91.089561,291.180176 56.152462,261.695862 
	C29.464693,239.173355 13.422594,210.247025 7.184721,176.096481 
	C2.098170,148.249100 5.591479,121.080254 16.439110,94.519028 
M121.205894,265.772247 
	C131.467575,256.162415 141.729263,246.552597 152.221222,236.727127 
	C160.042328,244.586349 168.687454,253.361755 177.451889,262.016296 
	C179.542038,264.080261 180.302643,265.782959 179.262253,268.931366 
	C177.105011,275.459564 175.733521,282.247406 174.038971,288.928497 
	C174.493210,289.088318 174.947433,289.248138 175.401672,289.407928 
	C175.947281,288.222382 176.653152,287.083069 177.010941,285.843323 
	C178.604752,280.320679 179.887466,274.698730 181.704529,269.253448 
	C182.892715,265.692688 182.213333,263.403412 179.443512,260.759674 
	C170.320602,252.051895 161.534515,242.991272 152.374786,233.821640 
	C161.815002,224.438431 170.819962,215.321091 180.088120,206.479630 
	C181.291977,205.331177 184.042099,204.881287 185.756851,205.329300 
	C210.718826,211.851105 235.644272,218.516205 260.518341,225.365341 
	C262.919769,226.026581 264.921967,228.137665 267.213531,229.644104 
	C268.401947,227.191803 268.056030,225.011795 263.785858,223.902267 
	C250.927826,220.561325 238.133530,216.974991 225.243607,213.465103 
	C228.563187,200.794510 231.657349,188.186264 235.276077,175.730423 
	C236.186035,172.598267 235.558502,170.912445 233.458374,168.861694 
	C224.203369,159.824142 215.066772,150.665298 205.626266,141.291214 
	C211.539917,135.467422 217.093704,129.955078 222.697144,124.493713 
	C226.975220,120.324104 230.750717,113.977638 235.786118,112.707275 
	C240.959900,111.401993 247.402420,115.039490 253.270020,116.588669 
	C265.100525,119.712204 276.917664,122.886391 288.740295,126.039680 
	C288.938629,125.465271 289.136932,124.890869 289.335266,124.316460 
	C286.984100,123.530907 284.679413,122.525841 282.269928,122.015930 
	C279.324371,121.392570 278.425751,120.297890 279.580902,117.222969 
	C280.903229,113.703102 281.685883,109.963066 282.480133,106.270737 
	C282.801422,104.777191 282.533112,103.156815 282.533112,101.594162 
	C282.167145,101.587158 281.801178,101.580154 281.435211,101.573151 
	C279.771790,107.688255 278.108368,113.803368 276.335052,120.322403 
	C263.208862,116.817184 250.352081,113.461029 237.571899,109.834908 
	C236.466156,109.521179 235.473251,107.531136 235.093140,106.138237 
	C231.631424,93.453011 228.355957,80.717140 224.950043,68.016457 
	C221.102478,53.668823 217.176498,39.342213 213.293182,25.038069 
	C212.656052,25.131985 212.333511,25.179527 212.010971,25.227072 
	C215.265152,39.296246 218.519318,53.365421 221.809479,67.590157 
	C209.203751,71.020676 196.507812,74.372284 183.902695,78.036377 
	C182.318298,78.496941 180.467102,80.386826 180.002884,81.982086 
	C176.335861,94.583549 172.975632,107.274292 169.403519,120.368362 
	C156.895828,116.967865 144.512009,113.705193 132.218246,110.132591 
	C130.603256,109.663269 128.632751,107.829857 128.203659,106.253471 
	C121.253395,80.720139 114.485031,55.136757 107.852783,29.518801 
	C107.468285,28.033619 108.080963,25.677610 109.122124,24.553722 
	C111.961845,21.488379 115.279930,18.866188 118.408501,16.068430 
	C117.990013,15.631655 117.571526,15.194879 117.153038,14.758103 
	C111.891876,16.386269 109.157516,21.277012 105.632553,24.933311 
	C104.555016,26.050993 105.441772,29.469278 106.000824,31.690031 
	C109.001320,43.609066 112.182350,55.482651 115.358124,67.589638 
	C102.898743,70.868706 90.788361,73.878967 78.807251,77.337120 
	C75.915932,78.171661 74.241638,77.732437 72.281662,75.721802 
	C65.768517,69.040329 59.131470,62.479057 52.495842,55.918308 
	C51.657154,55.089085 50.544209,54.537243 49.558327,53.856892 
	C49.272160,54.222744 48.985996,54.588596 48.699829,54.954449 
	C49.780186,56.122051 50.825245,57.324791 51.946751,58.451431 
	C58.178257,64.711449 64.604324,70.790443 70.592346,77.274445 
	C73.289726,80.195251 75.699905,80.785286 79.472374,79.685349 
	C91.420952,76.201538 103.487114,73.121017 115.541031,69.875595 
	C116.054604,70.740242 116.537598,71.262756 116.700706,71.871040 
	C119.808273,83.460381 122.725128,95.104141 126.060928,106.626770 
	C126.919930,109.593948 125.958633,111.123772 124.078529,112.992004 
	C107.764214,129.203369 91.067879,145.066574 75.456215,161.932190 
	C68.542542,169.401184 62.455036,171.241241 52.985584,167.567123 
	C43.584587,163.919571 33.443314,162.179962 23.335958,159.527298 
	C20.596867,170.200211 17.991407,180.352417 15.385947,190.504623 
	C16.019062,190.672729 16.652176,190.840836 17.285292,191.008926 
	C19.907747,181.496689 22.530203,171.984436 25.173286,162.397354 
	C37.894535,165.744064 50.298412,168.910110 62.616753,172.379807 
	C64.041649,172.781143 65.617348,174.686142 66.061935,176.204697 
	C69.477371,187.870621 72.893066,199.550537 75.718246,211.367294 
	C76.670433,215.349960 78.067337,215.539703 81.406456,214.586533 
	C92.940712,211.294052 104.523560,208.162491 116.148277,205.207169 
	C117.728401,204.805466 120.243416,205.137741 121.323509,206.174332 
	C130.668976,215.143036 139.784912,224.350952 149.266830,233.783707 
	C142.450790,240.577988 136.416046,247.865494 129.126495,253.541534 
	C119.767891,260.828674 117.409531,268.774597 122.602379,279.376129 
	C124.081551,282.395966 124.507782,285.931549 125.416862,289.230621 
	C126.060776,289.056244 126.704681,288.881866 127.348595,288.707489 
	C125.412636,281.285553 123.476677,273.863586 121.205894,265.772247 
M41.737179,234.280807 
	C41.187809,235.281891 40.638439,236.282990 40.089069,237.284088 
	C40.336174,237.395767 40.583279,237.507446 40.830383,237.619141 
	C42.154716,236.320038 43.479046,235.020950 44.176762,234.336533 
	C38.679585,228.848999 33.045216,223.224503 27.410845,217.600021 
	C27.261873,217.727097 27.112900,217.854172 26.963928,217.981232 
	C31.933214,223.184830 36.902500,228.388412 41.737179,234.280807 
z"/>
<path fill="#EFEFEF" opacity="1.000000" stroke="none" 
	d="
M121.373306,266.106934 
	C123.476677,273.863586 125.412636,281.285553 127.348595,288.707489 
	C126.704681,288.881866 126.060776,289.056244 125.416862,289.230621 
	C124.507782,285.931549 124.081551,282.395966 122.602379,279.376129 
	C117.409531,268.774597 119.767891,260.828674 129.126495,253.541534 
	C136.416046,247.865494 142.450790,240.577988 149.266830,233.783707 
	C139.784912,224.350952 130.668976,215.143036 121.323509,206.174332 
	C120.243416,205.137741 117.728401,204.805466 116.148277,205.207169 
	C104.523560,208.162491 92.940712,211.294052 81.406456,214.586533 
	C78.067337,215.539703 76.670433,215.349960 75.718246,211.367294 
	C72.893066,199.550537 69.477371,187.870621 66.061935,176.204697 
	C65.617348,174.686142 64.041649,172.781143 62.616753,172.379807 
	C50.298412,168.910110 37.894535,165.744064 25.173286,162.397354 
	C22.530203,171.984436 19.907747,181.496689 17.285292,191.008926 
	C16.652176,190.840836 16.019062,190.672729 15.385947,190.504623 
	C17.991407,180.352417 20.596867,170.200211 23.335958,159.527298 
	C33.443314,162.179962 43.584587,163.919571 52.985584,167.567123 
	C62.455036,171.241241 68.542542,169.401184 75.456215,161.932190 
	C91.067879,145.066574 107.764214,129.203369 124.078529,112.992004 
	C125.958633,111.123772 126.919930,109.593948 126.060928,106.626770 
	C122.725128,95.104141 119.808273,83.460381 116.700706,71.871040 
	C116.537598,71.262756 116.054604,70.740242 115.541031,69.875595 
	C103.487114,73.121017 91.420952,76.201538 79.472374,79.685349 
	C75.699905,80.785286 73.289726,80.195251 70.592346,77.274445 
	C64.604324,70.790443 58.178257,64.711449 51.946751,58.451431 
	C50.825245,57.324791 49.780186,56.122051 48.699829,54.954449 
	C48.985996,54.588596 49.272160,54.222744 49.558327,53.856892 
	C50.544209,54.537243 51.657154,55.089085 52.495842,55.918308 
	C59.131470,62.479057 65.768517,69.040329 72.281662,75.721802 
	C74.241638,77.732437 75.915932,78.171661 78.807251,77.337120 
	C90.788361,73.878967 102.898743,70.868706 115.358124,67.589638 
	C112.182350,55.482651 109.001320,43.609066 106.000824,31.690031 
	C105.441772,29.469278 104.555016,26.050993 105.632553,24.933311 
	C109.157516,21.277012 111.891876,16.386269 117.153038,14.758103 
	C117.571526,15.194879 117.990013,15.631655 118.408501,16.068430 
	C115.279930,18.866188 111.961845,21.488379 109.122124,24.553722 
	C108.080963,25.677610 107.468285,28.033619 107.852783,29.518801 
	C114.485031,55.136757 121.253395,80.720139 128.203659,106.253471 
	C128.632751,107.829857 130.603256,109.663269 132.218246,110.132591 
	C144.512009,113.705193 156.895828,116.967865 169.403519,120.368362 
	C172.975632,107.274292 176.335861,94.583549 180.002884,81.982086 
	C180.467102,80.386826 182.318298,78.496941 183.902695,78.036377 
	C196.507812,74.372284 209.203751,71.020676 221.809479,67.590157 
	C218.519318,53.365421 215.265152,39.296246 212.010971,25.227072 
	C212.333511,25.179527 212.656052,25.131985 213.293182,25.038069 
	C217.176498,39.342213 221.102478,53.668823 224.950043,68.016457 
	C228.355957,80.717140 231.631424,93.453011 235.093140,106.138237 
	C235.473251,107.531136 236.466156,109.521179 237.571899,109.834908 
	C250.352081,113.461029 263.208862,116.817184 276.335052,120.322403 
	C278.108368,113.803368 279.771790,107.688255 281.435211,101.573151 
	C281.801178,101.580154 282.167145,101.587158 282.533112,101.594162 
	C282.533112,103.156815 282.801422,104.777191 282.480133,106.270737 
	C281.685883,109.963066 280.903229,113.703102 279.580902,117.222969 
	C278.425751,120.297890 279.324371,121.392570 282.269928,122.015930 
	C284.679413,122.525841 286.984100,123.530907 289.335266,124.316460 
	C289.136932,124.890869 288.938629,125.465271 288.740295,126.039680 
	C276.917664,122.886391 265.100525,119.712204 253.270020,116.588669 
	C247.402420,115.039490 240.959900,111.401993 235.786118,112.707275 
	C230.750717,113.977638 226.975220,120.324104 222.697144,124.493713 
	C217.093704,129.955078 211.539917,135.467422 205.626266,141.291214 
	C215.066772,150.665298 224.203369,159.824142 233.458374,168.861694 
	C235.558502,170.912445 236.186035,172.598267 235.276077,175.730423 
	C231.657349,188.186264 228.563187,200.794510 225.243607,213.465103 
	C238.133530,216.974991 250.927826,220.561325 263.785858,223.902267 
	C268.056030,225.011795 268.401947,227.191803 267.213531,229.644104 
	C264.921967,228.137665 262.919769,226.026581 260.518341,225.365341 
	C235.644272,218.516205 210.718826,211.851105 185.756851,205.329300 
	C184.042099,204.881287 181.291977,205.331177 180.088120,206.479630 
	C170.819962,215.321091 161.815002,224.438431 152.374786,233.821640 
	C161.534515,242.991272 170.320602,252.051895 179.443512,260.759674 
	C182.213333,263.403412 182.892715,265.692688 181.704529,269.253448 
	C179.887466,274.698730 178.604752,280.320679 177.010941,285.843323 
	C176.653152,287.083069 175.947281,288.222382 175.401672,289.407928 
	C174.947433,289.248138 174.493210,289.088318 174.038971,288.928497 
	C175.733521,282.247406 177.105011,275.459564 179.262253,268.931366 
	C180.302643,265.782959 179.542038,264.080261 177.451889,262.016296 
	C168.687454,253.361755 160.042328,244.586349 152.221222,236.727127 
	C141.729263,246.552597 131.467575,256.162415 121.373306,266.106934 
M228.159271,115.592491 
	C233.371201,112.349899 233.962463,107.865662 231.849686,102.502151 
	C231.011536,100.374435 230.572678,98.088463 229.966110,95.870682 
	C227.597992,87.212051 225.235504,78.551872 222.852051,69.823204 
	C214.300568,72.053207 206.348221,74.081474 198.422745,76.209824 
	C193.195175,77.613663 186.491791,77.686699 183.216415,81.050247 
	C179.786469,84.572540 179.642578,91.310371 178.112030,96.656960 
	C177.660919,98.232849 177.441345,99.874252 177.007904,101.456108 
	C175.028076,108.681526 173.009918,115.896439 170.995651,123.150742 
	C157.373230,119.507629 144.390335,115.960922 131.346146,112.656219 
	C129.958588,112.304688 127.709244,112.860741 126.706795,113.852226 
	C107.640274,132.710342 88.680046,151.676331 69.796463,170.717834 
	C68.833595,171.688751 68.058029,173.718933 68.375839,174.951538 
	C71.637482,187.601685 75.143257,200.188889 78.591713,212.833267 
	C91.299873,209.476364 103.738861,206.428741 116.006271,202.800903 
	C119.556633,201.750961 121.378830,202.714920 123.652443,205.056290 
	C132.526199,214.194473 141.575775,223.161942 150.784927,232.419022 
	C160.371338,222.762238 169.435776,213.460968 178.763779,204.431992 
	C180.051941,203.185120 182.843964,202.468048 184.602554,202.894928 
	C197.322906,205.982712 209.956528,209.427872 222.920807,212.839630 
	C225.952835,201.519852 228.669861,190.175629 232.113235,179.056335 
	C233.698120,173.938416 232.582138,170.793182 228.755493,167.240829 
	C219.786697,158.914917 211.297333,150.072540 202.457230,141.283493 
	C211.176422,132.571152 219.415436,124.338615 228.159271,115.592491 
z"/>
<path fill="#F7F7F7" opacity="1.000000" stroke="none" 
	d="
M41.804482,233.936401 
	C36.902500,228.388412 31.933214,223.184830 26.963928,217.981232 
	C27.112900,217.854172 27.261873,217.727097 27.410845,217.600021 
	C33.045216,223.224503 38.679585,228.848999 44.176762,234.336533 
	C43.479046,235.020950 42.154716,236.320038 40.830383,237.619141 
	C40.583279,237.507446 40.336174,237.395767 40.089069,237.284088 
	C40.638439,236.282990 41.187809,235.281891 41.804482,233.936401 
z"/>
<path fill="#010101" opacity="0" stroke="none" 
	d="
M227.906860,115.849281 
	C219.415436,124.338615 211.176422,132.571152 202.457230,141.283493 
	C211.297333,150.072540 219.786697,158.914917 228.755493,167.240829 
	C232.582138,170.793182 233.698120,173.938416 232.113235,179.056335 
	C228.669861,190.175629 225.952835,201.519852 222.920807,212.839630 
	C209.956528,209.427872 197.322906,205.982712 184.602554,202.894928 
	C182.843964,202.468048 180.051941,203.185120 178.763779,204.431992 
	C169.435776,213.460968 160.371338,222.762238 150.784927,232.419022 
	C141.575775,223.161942 132.526199,214.194473 123.652443,205.056290 
	C121.378830,202.714920 119.556633,201.750961 116.006271,202.800903 
	C103.738861,206.428741 91.299873,209.476364 78.591713,212.833267 
	C75.143257,200.188889 71.637482,187.601685 68.375839,174.951538 
	C68.058029,173.718933 68.833595,171.688751 69.796463,170.717834 
	C88.680046,151.676331 107.640274,132.710342 126.706795,113.852226 
	C127.709244,112.860741 129.958588,112.304688 131.346146,112.656219 
	C144.390335,115.960922 157.373230,119.507629 170.995651,123.150742 
	C173.009918,115.896439 175.028076,108.681526 177.007904,101.456108 
	C177.441345,99.874252 177.660919,98.232849 178.112030,96.656960 
	C179.642578,91.310371 179.786469,84.572540 183.216415,81.050247 
	C186.491791,77.686699 193.195175,77.613663 198.422745,76.209824 
	C206.348221,74.081474 214.300568,72.053207 222.852051,69.823204 
	C225.235504,78.551872 227.597992,87.212051 229.966110,95.870682 
	C230.572678,98.088463 231.011536,100.374435 231.849686,102.502151 
	C233.962463,107.865662 233.371201,112.349899 227.906860,115.849281 
z"/>
</svg>